<svg xmlns="http://www.w3.org/2000/svg">
	<polygon fill="rgba(100,100,100,0.5)" points="0,0 1300,0 1300,300 0,300"/>
	<polygon fill="#29B283" points="661.5,25 638.5,25 587.5,76 610.5,76"/>
	<polygon fill="#840101" points="587.5,99 587.5,76 638.5,127 638.5,150"/>
	<polygon fill="#002953" points="661.5,150 638.5,150 689.5,99 712.5,99"/>
	<polygon fill="#FFE407" points="661.5,48 661.5,25 712.5,76 712.5,99"/>
	<polygon fill="#1F8664" points="610.5,76 610.5,99 661.5,48 661.5,25"/>
	<polygon fill="#D50202" points="661.5,127 638.5,127 587.5,76 610.5,76"/>
	<polygon fill="#0051A3" points="689.5,76 689.5,99 638.5,150 638.5,127"/>
	<polygon fill="#DFBD3B" points="712.5,99 689.5,99 650,59.5 661.5,48"/>
</svg>