<svg xmlns="http://www.w3.org/2000/svg">
	<polygon fill="rgba(180,180,180,0.5)" points="0,0 1000,0 1000,300 0,300"/>
	<polygon fill="#29B283" points="509.2,10 490.8,10 450,50.8 468.4,50.8"/>
	<polygon fill="#840101" points="450,69.2 450,50.8 490.8,91.6 490.8,110"/>
	<polygon fill="#002953" points="509.2,110 490.8,110 531.6,69.2 550,69.2"/>
	<polygon fill="#FFE407" points="509.2,28.4 509.2,10 550,50.8 550,69.2"/>
	<polygon fill="#1F8664" points="468.4,50.8 468.4,69.2 509.2,28.4 509.2,10"/>
	<polygon fill="#D50202" points="509.2,91.6 490.8,91.6 450,50.8 468.4,50.8"/>
	<polygon fill="#0051A3" points="531.6,50.8 531.6,69.2 490.8,110 490.8,91.6"/>
	<polygon fill="#DFBD3B" points="550,69.2 531.6,69.2 500,37.6 509.2,28.4"/>
</svg>