<?xml version="1.0" encoding="iso-8859-1"?>
<!-- Generator: Adobe Illustrator 18.0.0, SVG Export Plug-In . SVG Version: 6.00 Build 0)  -->
<svg version="1.2" baseProfile="tiny" id="Layer_1" xmlns="http://www.w3.org/2000/svg" xmlns:xlink="http://www.w3.org/1999/xlink"
	 x="0px" y="0px" viewBox="0 0 960 560" xml:space="preserve">
<g>
	<path d="M96.4150391,362.1494141v76.9550781h80.7519531v-76.9550781h34.8505859v192.1025391h-34.8505859v-84.6503906H96.4150391
		v84.6503906H61.5639648V362.1494141H96.4150391z"/>
	<path d="M288.5180664,391.5058594h-54.4013672v-29.3564453h144.2202148v29.3564453h-54.9677734v162.7460938h-34.8510742
		V391.5058594z"/>
	<path d="M400.71875,362.1494141h34.8510742v162.7451172h78.4848633v29.3574219H400.71875V362.1494141z"/>
	<path fill="#006496" d="M576.1044922,376.6855469c0,10.5449219-7.6503906,18.8105469-19.8339844,18.8105469
		c-11.6171875,0-19.2675781-8.265625-19.2675781-18.8105469c0-10.8310547,7.9335938-19.0966797,19.5507813-19.0966797
		C568.4541016,357.5888672,575.8212891,365.8544922,576.1044922,376.6855469z M538.9863281,554.2519531V415.4472656h35.1347656
		v138.8046875H538.9863281z"/>
	<path fill="#006496" d="M611.5205078,456.7753906c0-15.9609375-0.2832031-29.3564453-1.1328125-41.328125h30.6005859
		l1.7001953,20.8066406h0.8496094c5.9501953-10.8300781,20.9677734-23.9414063,43.9179688-23.9414063
		c24.0839844,0,49.0175781,15.6757813,49.0175781,59.5693359v82.3701172h-34.8505859v-78.3798828
		c0-19.9511719-7.3671875-35.0576172-26.3505859-35.0576172c-13.8837891,0-23.5175781,9.9755859-27.2011719,20.5214844
		c-1.1328125,3.1347656-1.4160156,7.4101563-1.4160156,11.4003906v81.515625h-35.1347656V456.7753906z"/>
	<path fill="#006496" d="M773.5878906,456.7753906c0-15.9609375-0.2832031-29.3564453-1.1328125-41.328125h30.6005859
		l1.7001953,20.8066406h0.8496094c5.9501953-10.8300781,20.9677734-23.9414063,43.9179688-23.9414063
		c24.0839844,0,49.0175781,15.6757813,49.0175781,59.5693359v82.3701172h-34.8505859v-78.3798828
		c0-19.9511719-7.3671875-35.0576172-26.3505859-35.0576172c-13.8837891,0-23.5175781,9.9755859-27.2011719,20.5214844
		c-1.1328125,3.1347656-1.4160156,7.4101563-1.4160156,11.4003906v81.515625h-35.1347656V456.7753906z"/>
</g>
<g>
	<polygon fill="#29B283" points="510.6646729,7.7625279 449.3353271,7.7625279 313.0479126,144.0499268 374.3772583,144.0499268 	
		"/>
	<polygon fill="#840101" points="313.0479126,205.3792572 313.0479126,144.0499268 449.3353271,280.3373413 
		449.3353271,341.6666565 	"/>
	<polygon fill="#002953" points="510.6646729,341.6666565 449.3353271,341.6666565 585.6227417,205.3792572 
		646.9520874,205.3792572 	"/>
	<polygon fill="#FFE407" points="510.6646729,69.0918655 510.6646729,7.7625346 646.9520874,144.049942 646.9520874,205.3792725 	
		"/>
	<polygon fill="#DFBD3B" points="646.9520874,205.3792725 585.6227417,205.3792725 449.3353271,69.0918579 510.6646729,69.0918579 	
		"/>
	<polygon fill="#1F8664" points="374.3772583,144.049942 374.3772583,205.3792725 510.6646729,69.0918579 510.6646729,7.7625284 	
		"/>
	<polygon fill="#D50202" points="510.6646729,280.3373413 449.3353271,280.3373413 313.0479431,144.0499268 
		374.3772583,144.0499268 	"/>
	<polygon fill="#0051A3" points="585.6227417,144.049942 585.6227417,205.3792725 449.3353271,341.666687 449.3353271,280.3373413 	
		"/>
	<polygon fill="#DFBD3B" points="641.0020142,205.3792725 585.6227417,205.3792725 530.2434692,150 585.6227417,150 	"/>
	<polygon fill="#DFBD3B" points="634.1876221,192.6148376 578.8083496,192.6148376 523.4290771,137.2355652 
		578.8083496,137.2355652 	"/>
</g>
<g>
</g>
<g>
</g>
<g>
</g>
<g>
</g>
<g>
</g>
<g>
</g>
<g>
</g>
<g>
</g>
<g>
</g>
<g>
</g>
<g>
</g>
<g>
</g>
<g>
</g>
<g>
</g>
<g>
</g>
</svg>
