<svg xmlns="http://www.w3.org/2000/svg" xmlns:xlink="http://www.w3.org/1999/xlink" version="1.1" x="0px" y="0px" width="100px" height="100px" viewBox="0 0 100 100" enable-background="new 0 0 100 100" xml:space="preserve"><path fill="#FFFFFF" d="M63.973 49.999l34.76-34.762c1.335-1.333 1.335-3.494 0-4.826l-9.144-9.146 c-1.333-1.332-3.493-1.332-4.827 0L50 36.028L15.237 1.265c-1.332-1.332-3.493-1.332-4.826 0l-9.146 9.146 c-1.333 1.332-1.333 3.493 0 4.826l34.763 34.762L1.267 84.762c-1.334 1.334-1.334 3.493 0 4.826l9.145 9.146 c1.333 1.334 3.495 1.334 4.826 0L50 63.973l34.761 34.761c1.334 1.334 3.493 1.334 4.826 0l9.146-9.146 c1.333-1.333 1.333-3.492 0-4.826L63.973 49.999z"/></svg>