<svg xmlns="http://www.w3.org/2000/svg" xmlns:xlink="http://www.w3.org/1999/xlink" version="1.1" x="0px" y="0px" width="100px" height="100px" viewBox="0 0 100 100" enable-background="new 0 0 100 100" xml:space="preserve"><path fill="#ffffff" d="M0 0v41l17.572-17.572L35.142 41L41 35.142L23.428 17.571L41 0H0z"/><path fill="#ffffff" d="M100 0v40.5L82.644 23.143L65.287 40.5L59.5 34.714l17.357-17.357L59.5 0H100z"/><path fill="#ffffff" d="M0 100V59.5l17.357 17.357L34.714 59.5l5.786 5.787L23.143 82.644L40.5 100H0z"/><path fill="#ffffff" d="M100 100V59.5L82.644 76.857L65.287 59.5L59.5 65.287l17.357 17.356L59.5 100H100z"/></svg>