<svg xmlns="http://www.w3.org/2000/svg" xmlns:xlink="http://www.w3.org/1999/xlink" version="1.1" x="0px" y="0px" width="102.222px" height="67.146px" viewBox="0.857 16.177 102.222 67.146" enable-background="new 0.857 16.177 102.222 67.146" xml:space="preserve"><g><path fill="#FFFFFF" d="M20.08 83.323h63.663V16.177H20.08V83.323z M24.576 22.357h54.785v54.786H24.576V22.357z"/><rect x="94.466" y="21.722" fill="#FFFFFF" width="4.676" height="52.753"/><rect x="84.993" y="18.369" fill="#FFFFFF" width="8.248" height="61.942"/><rect x="100.382" y="25.393" fill="#FFFFFF" width="2.697" height="45.412"/><rect x="4.795" y="21.722" fill="#FFFFFF" width="4.677" height="52.753"/><rect x="10.696" y="18.369" fill="#FFFFFF" width="8.248" height="61.942"/><rect x="0.857" y="25.393" fill="#FFFFFF" width="2.698" height="45.412"/></g><g><path fill="#FFFFFF" d="M31.696 29.477V46.1l7.124-7.125l7.124 7.125l2.376-2.375l-7.124-7.124l7.124-7.125H31.696z"/><path fill="#FFFFFF" d="M72.241 29.477v16.421l-7.036-7.037l-7.037 7.037l-2.347-2.346l7.037-7.037l-7.037-7.038H72.241z"/><path fill="#FFFFFF" d="M31.696 70.024V53.6l7.038 7.04l7.037-7.04l2.346 2.35l-7.038 7.037l7.038 7.037H31.696z"/><path fill="#FFFFFF" d="M72.241 70.024V53.6l-7.036 7.04l-7.037-7.04l-2.347 2.35l7.037 7.034l-7.037 7.04H72.241z"/></g></svg>