<svg xmlns="http://www.w3.org/2000/svg" height="100" width="1000">
	<polygon fill="rgba(180,180,180,0.9)" points="0,0 1000,0 1000,100 0,100"/>
	<polygon fill="#29B283" points="504.6,10 495.4,10 475,30.4 484.2,30.4"/>
	<polygon fill="#840101" points="475,39.6 475,30.4 495.4,50.8 495.4,60"/>
	<polygon fill="#002953" points="504.6,60 495.4,60 515.8,39.6 525,39.6"/>
	<polygon fill="#FFE407" points="504.6,19.2 504.6,10 525,30.4 525,39.6"/>
	<polygon fill="#1F8664" points="484.2,30.4 484.2,39.6 504.6,19.2 504.6,10"/>
	<polygon fill="#D50202" points="504.6,50.8 495.4,50.8 475,30.4 484.2,30.4"/>
	<polygon fill="#0051A3" points="515.8,30.4 515.8,39.6 495.4,60 495.4,50.8"/>
	<polygon fill="#DFBD3B" points="525,39.6 515.8,39.6 500,23.8 504.6,19.2"/>
	<text x="506" y="85" fill="black" style="text-anchor: end" font-size="20px">HTL</text>
	<text x="507" y="85" fill="blue" style="text-anchor: start" font-size="20px">inn</text>
</svg>